<svg width="1000" height="300" xmlns="http://www.w3.org/2000/svg" xmlns:xlink="http://www.w3.org/1999/xlink" version="1.1" baseProfile="full" viewBox="0 0 1000 300">
<rect width="1000" height="300" x="0" y="0" id="0" fill="#ffffff"></rect>
<path d="M58.2 271.5L931.8 271.5" fill="none" stroke="#E0E6F1"></path>
<path d="M58.2 229.5L931.8 229.5" fill="none" stroke="#E0E6F1"></path>
<path d="M58.2 186.5L931.8 186.5" fill="none" stroke="#E0E6F1"></path>
<path d="M58.2 144.5L931.8 144.5" fill="none" stroke="#E0E6F1"></path>
<path d="M58.2 102.5L931.8 102.5" fill="none" stroke="#E0E6F1"></path>
<path d="M58.2 60.5L931.8 60.5" fill="none" stroke="#E0E6F1"></path>
<path d="M58.2 271.5L931.8 271.5" fill="none" stroke="#6E7079" stroke-linecap="round"></path>
<path d="M60.5 271L60.5 276" fill="none" stroke="#6E7079"></path>
<path d="M109.5 271L109.5 276" fill="none" stroke="#6E7079"></path>
<path d="M159.5 271L159.5 276" fill="none" stroke="#6E7079"></path>
<path d="M209.5 271L209.5 276" fill="none" stroke="#6E7079"></path>
<path d="M258.5 271L258.5 276" fill="none" stroke="#6E7079"></path>
<path d="M308.5 271L308.5 276" fill="none" stroke="#6E7079"></path>
<path d="M357.5 271L357.5 276" fill="none" stroke="#6E7079"></path>
<path d="M407.5 271L407.5 276" fill="none" stroke="#6E7079"></path>
<path d="M457.5 271L457.5 276" fill="none" stroke="#6E7079"></path>
<path d="M506.5 271L506.5 276" fill="none" stroke="#6E7079"></path>
<path d="M556.5 271L556.5 276" fill="none" stroke="#6E7079"></path>
<path d="M605.5 271L605.5 276" fill="none" stroke="#6E7079"></path>
<path d="M655.5 271L655.5 276" fill="none" stroke="#6E7079"></path>
<path d="M705.5 271L705.5 276" fill="none" stroke="#6E7079"></path>
<path d="M754.5 271L754.5 276" fill="none" stroke="#6E7079"></path>
<path d="M804.5 271L804.5 276" fill="none" stroke="#6E7079"></path>
<path d="M853.5 271L853.5 276" fill="none" stroke="#6E7079"></path>
<path d="M903.5 271L903.5 276" fill="none" stroke="#6E7079"></path>
<text dominant-baseline="central" text-anchor="end" style="font-size:12px;font-family:sans-serif;" transform="translate(50.16 271)" fill="#6E7079">0</text>
<text dominant-baseline="central" text-anchor="end" style="font-size:12px;font-family:sans-serif;" transform="translate(50.16 228.8)" fill="#6E7079">180</text>
<text dominant-baseline="central" text-anchor="end" style="font-size:12px;font-family:sans-serif;" transform="translate(50.16 186.6)" fill="#6E7079">360</text>
<text dominant-baseline="central" text-anchor="end" style="font-size:12px;font-family:sans-serif;" transform="translate(50.16 144.4)" fill="#6E7079">540</text>
<text dominant-baseline="central" text-anchor="end" style="font-size:12px;font-family:sans-serif;" transform="translate(50.16 102.2)" fill="#6E7079">720</text>
<text dominant-baseline="central" text-anchor="end" style="font-size:12px;font-family:sans-serif;" transform="translate(50.16 60)" fill="#6E7079">900</text>
<text dominant-baseline="central" text-anchor="start" style="font-size:12px;font-family:sans-serif;" transform="translate(939.84 271)" fill="#6E7079">0</text>
<text dominant-baseline="central" text-anchor="start" style="font-size:12px;font-family:sans-serif;" transform="translate(939.84 228.8)" fill="#6E7079">180</text>
<text dominant-baseline="central" text-anchor="start" style="font-size:12px;font-family:sans-serif;" transform="translate(939.84 186.6)" fill="#6E7079">360</text>
<text dominant-baseline="central" text-anchor="start" style="font-size:12px;font-family:sans-serif;" transform="translate(939.84 144.4)" fill="#6E7079">540</text>
<text dominant-baseline="central" text-anchor="start" style="font-size:12px;font-family:sans-serif;" transform="translate(939.84 102.2)" fill="#6E7079">720</text>
<text dominant-baseline="central" text-anchor="start" style="font-size:12px;font-family:sans-serif;" transform="translate(939.84 60)" fill="#6E7079">900</text>
<text dominant-baseline="central" text-anchor="middle" style="font-size:12px;font-family:sans-serif;" y="6" transform="translate(60.0676 279)" fill="#6E7079">1km</text>
<text dominant-baseline="central" text-anchor="middle" style="font-size:12px;font-family:sans-serif;" y="6" transform="translate(109.6652 279)" fill="#6E7079">14km</text>
<text dominant-baseline="central" text-anchor="middle" style="font-size:12px;font-family:sans-serif;" y="6" transform="translate(159.2627 279)" fill="#6E7079">27km</text>
<text dominant-baseline="central" text-anchor="middle" style="font-size:12px;font-family:sans-serif;" y="6" transform="translate(208.8603 279)" fill="#6E7079">40km</text>
<text dominant-baseline="central" text-anchor="middle" style="font-size:12px;font-family:sans-serif;" y="6" transform="translate(258.4578 279)" fill="#6E7079">53km</text>
<text dominant-baseline="central" text-anchor="middle" style="font-size:12px;font-family:sans-serif;" y="6" transform="translate(308.0554 279)" fill="#6E7079">66km</text>
<text dominant-baseline="central" text-anchor="middle" style="font-size:12px;font-family:sans-serif;" y="6" transform="translate(357.6529 279)" fill="#6E7079">79km</text>
<text dominant-baseline="central" text-anchor="middle" style="font-size:12px;font-family:sans-serif;" y="6" transform="translate(407.2505 279)" fill="#6E7079">92km</text>
<text dominant-baseline="central" text-anchor="middle" style="font-size:12px;font-family:sans-serif;" y="6" transform="translate(456.848 279)" fill="#6E7079">105km</text>
<text dominant-baseline="central" text-anchor="middle" style="font-size:12px;font-family:sans-serif;" y="6" transform="translate(506.4456 279)" fill="#6E7079">118km</text>
<text dominant-baseline="central" text-anchor="middle" style="font-size:12px;font-family:sans-serif;" y="6" transform="translate(556.0431 279)" fill="#6E7079">131km</text>
<text dominant-baseline="central" text-anchor="middle" style="font-size:12px;font-family:sans-serif;" y="6" transform="translate(605.6407 279)" fill="#6E7079">144km</text>
<text dominant-baseline="central" text-anchor="middle" style="font-size:12px;font-family:sans-serif;" y="6" transform="translate(655.2383 279)" fill="#6E7079">157km</text>
<text dominant-baseline="central" text-anchor="middle" style="font-size:12px;font-family:sans-serif;" y="6" transform="translate(704.8358 279)" fill="#6E7079">170km</text>
<text dominant-baseline="central" text-anchor="middle" style="font-size:12px;font-family:sans-serif;" y="6" transform="translate(754.4334 279)" fill="#6E7079">183km</text>
<text dominant-baseline="central" text-anchor="middle" style="font-size:12px;font-family:sans-serif;" y="6" transform="translate(804.0309 279)" fill="#6E7079">196km</text>
<text dominant-baseline="central" text-anchor="middle" style="font-size:12px;font-family:sans-serif;" y="6" transform="translate(853.6285 279)" fill="#6E7079">209km</text>
<text dominant-baseline="central" text-anchor="middle" style="font-size:12px;font-family:sans-serif;" y="6" transform="translate(903.226 279)" fill="#6E7079">222km</text>
<path d="M58.8 271l2.6 0l0 -207.2l-2.6 0Z" fill="rgb(227,73,2)" fill-opacity="0.3"></path>
<path d="M62.6 271l2.6 0l0 -207.2l-2.6 0Z" fill="rgb(227,73,2)" fill-opacity="0.3"></path>
<path d="M66.4 271l2.6 0l0 -207l-2.6 0Z" fill="rgb(227,73,2)" fill-opacity="0.3"></path>
<path d="M70.2 271l2.6 0l0 -206.8l-2.6 0Z" fill="rgb(227,73,2)" fill-opacity="0.3"></path>
<path d="M74 271l2.6 0l0 -206.5l-2.6 0Z" fill="rgb(227,73,2)" fill-opacity="0.3"></path>
<path d="M77.8 271l2.6 0l0 -205.6l-2.6 0Z" fill="rgb(227,73,2)" fill-opacity="0.3"></path>
<path d="M81.6 271l2.6 0l0 -204.9l-2.6 0Z" fill="rgb(227,73,2)" fill-opacity="0.3"></path>
<path d="M85.5 271l2.6 0l0 -204.9l-2.6 0Z" fill="rgb(227,73,2)" fill-opacity="0.3"></path>
<path d="M89.3 271l2.6 0l0 -203.7l-2.6 0Z" fill="rgb(227,73,2)" fill-opacity="0.3"></path>
<path d="M93.1 271l2.6 0l0 -201.9l-2.6 0Z" fill="rgb(227,73,2)" fill-opacity="0.3"></path>
<path d="M96.9 271l2.6 0l0 -201.6l-2.6 0Z" fill="rgb(227,73,2)" fill-opacity="0.3"></path>
<path d="M100.7 271l2.6 0l0 -201.4l-2.6 0Z" fill="rgb(227,73,2)" fill-opacity="0.3"></path>
<path d="M104.5 271l2.6 0l0 -200.4l-2.6 0Z" fill="rgb(227,73,2)" fill-opacity="0.3"></path>
<path d="M108.3 271l2.6 0l0 -200l-2.6 0Z" fill="rgb(227,73,2)" fill-opacity="0.3"></path>
<path d="M112.2 271l2.6 0l0 -198.8l-2.6 0Z" fill="rgb(227,73,2)" fill-opacity="0.3"></path>
<path d="M116 271l2.6 0l0 -197.6l-2.6 0Z" fill="rgb(227,73,2)" fill-opacity="0.3"></path>
<path d="M119.8 271l2.6 0l0 -196.2l-2.6 0Z" fill="rgb(227,73,2)" fill-opacity="0.3"></path>
<path d="M123.6 271l2.6 0l0 -195.3l-2.6 0Z" fill="rgb(227,73,2)" fill-opacity="0.3"></path>
<path d="M127.4 271l2.6 0l0 -193.9l-2.6 0Z" fill="rgb(227,73,2)" fill-opacity="0.3"></path>
<path d="M131.2 271l2.6 0l0 -191.3l-2.6 0Z" fill="rgb(227,73,2)" fill-opacity="0.3"></path>
<path d="M135.1 271l2.6 0l0 -189l-2.6 0Z" fill="rgb(227,73,2)" fill-opacity="0.3"></path>
<path d="M138.9 271l2.6 0l0 -186.1l-2.6 0Z" fill="rgb(227,73,2)" fill-opacity="0.3"></path>
<path d="M142.7 271l2.6 0l0 -182.9l-2.6 0Z" fill="rgb(227,73,2)" fill-opacity="0.3"></path>
<path d="M146.5 271l2.6 0l0 -180.3l-2.6 0Z" fill="rgb(227,73,2)" fill-opacity="0.3"></path>
<path d="M150.3 271l2.6 0l0 -176.3l-2.6 0Z" fill="rgb(227,73,2)" fill-opacity="0.3"></path>
<path d="M154.1 271l2.6 0l0 -171.4l-2.6 0Z" fill="rgb(227,73,2)" fill-opacity="0.3"></path>
<path d="M157.9 271l2.6 0l0 -167.2l-2.6 0Z" fill="rgb(227,73,2)" fill-opacity="0.3"></path>
<path d="M161.8 271l2.6 0l0 -164.1l-2.6 0Z" fill="rgb(227,73,2)" fill-opacity="0.3"></path>
<path d="M165.6 271l2.6 0l0 -157.8l-2.6 0Z" fill="rgb(227,73,2)" fill-opacity="0.3"></path>
<path d="M169.4 271l2.6 0l0 -154l-2.6 0Z" fill="rgb(227,73,2)" fill-opacity="0.3"></path>
<path d="M173.2 271l2.6 0l0 -145.6l-2.6 0Z" fill="rgb(227,73,2)" fill-opacity="0.3"></path>
<path d="M177 271l2.6 0l0 -139.7l-2.6 0Z" fill="rgb(227,73,2)" fill-opacity="0.3"></path>
<path d="M180.8 271l2.6 0l0 -133.9l-2.6 0Z" fill="rgb(227,73,2)" fill-opacity="0.3"></path>
<path d="M184.7 271l2.6 0l0 -127.3l-2.6 0Z" fill="rgb(227,73,2)" fill-opacity="0.3"></path>
<path d="M188.5 271l2.6 0l0 -122.1l-2.6 0Z" fill="rgb(227,73,2)" fill-opacity="0.3"></path>
<path d="M192.3 271l2.6 0l0 -118.6l-2.6 0Z" fill="rgb(227,73,2)" fill-opacity="0.3"></path>
<path d="M196.1 271l2.6 0l0 -113.7l-2.6 0Z" fill="rgb(227,73,2)" fill-opacity="0.3"></path>
<path d="M199.9 271l2.6 0l0 -110.2l-2.6 0Z" fill="rgb(227,73,2)" fill-opacity="0.3"></path>
<path d="M203.7 271l2.6 0l0 -105.7l-2.6 0Z" fill="rgb(227,73,2)" fill-opacity="0.3"></path>
<path d="M207.5 271l2.6 0l0 -103.6l-2.6 0Z" fill="rgb(227,73,2)" fill-opacity="0.3"></path>
<path d="M211.4 271l2.6 0l0 -96.1l-2.6 0Z" fill="rgb(227,73,2)" fill-opacity="0.3"></path>
<path d="M215.2 271l2.6 0l0 -92.6l-2.6 0Z" fill="rgb(227,73,2)" fill-opacity="0.3"></path>
<path d="M219 271l2.6 0l0 -87.7l-2.6 0Z" fill="rgb(227,73,2)" fill-opacity="0.3"></path>
<path d="M222.8 271l2.6 0l0 -84.2l-2.6 0Z" fill="rgb(227,73,2)" fill-opacity="0.3"></path>
<path d="M226.6 271l2.6 0l0 -80.6l-2.6 0Z" fill="rgb(227,73,2)" fill-opacity="0.3"></path>
<path d="M230.4 271l2.6 0l0 -78.8l-2.6 0Z" fill="rgb(227,73,2)" fill-opacity="0.3"></path>
<path d="M234.3 271l2.6 0l0 -77.1l-2.6 0Z" fill="rgb(227,73,2)" fill-opacity="0.3"></path>
<path d="M238.1 271l2.6 0l0 -75.3l-2.6 0Z" fill="rgb(227,73,2)" fill-opacity="0.3"></path>
<path d="M241.9 271l2.6 0l0 -71.7l-2.6 0Z" fill="rgb(227,73,2)" fill-opacity="0.3"></path>
<path d="M245.7 271l2.6 0l0 -69.4l-2.6 0Z" fill="rgb(227,73,2)" fill-opacity="0.3"></path>
<path d="M249.5 271l2.6 0l0 -63.8l-2.6 0Z" fill="rgb(227,73,2)" fill-opacity="0.3"></path>
<path d="M253.3 271l2.6 0l0 -60.5l-2.6 0Z" fill="rgb(227,73,2)" fill-opacity="0.3"></path>
<path d="M257.1 271l2.6 0l0 -58.8l-2.6 0Z" fill="rgb(227,73,2)" fill-opacity="0.3"></path>
<path d="M261 271l2.6 0l0 -55.8l-2.6 0Z" fill="rgb(227,73,2)" fill-opacity="0.3"></path>
<path d="M264.8 271l2.6 0l0 -52.7l-2.6 0Z" fill="rgb(227,73,2)" fill-opacity="0.3"></path>
<path d="M268.6 271l2.6 0l0 -49.9l-2.6 0Z" fill="rgb(227,73,2)" fill-opacity="0.3"></path>
<path d="M272.4 271l2.6 0l0 -48.3l-2.6 0Z" fill="rgb(227,73,2)" fill-opacity="0.3"></path>
<path d="M276.2 271l2.6 0l0 -45.7l-2.6 0Z" fill="rgb(227,73,2)" fill-opacity="0.3"></path>
<path d="M280 271l2.6 0l0 -44.5l-2.6 0Z" fill="rgb(227,73,2)" fill-opacity="0.3"></path>
<path d="M283.8 271l2.6 0l0 -42.2l-2.6 0Z" fill="rgb(227,73,2)" fill-opacity="0.3"></path>
<path d="M287.7 271l2.6 0l0 -39.9l-2.6 0Z" fill="rgb(227,73,2)" fill-opacity="0.3"></path>
<path d="M291.5 271l2.6 0l0 -37.7l-2.6 0Z" fill="rgb(227,73,2)" fill-opacity="0.3"></path>
<path d="M295.3 271l2.6 0l0 -36.3l-2.6 0Z" fill="rgb(227,73,2)" fill-opacity="0.3"></path>
<path d="M299.1 271l2.6 0l0 -35.6l-2.6 0Z" fill="rgb(227,73,2)" fill-opacity="0.3"></path>
<path d="M302.9 271l2.6 0l0 -34.2l-2.6 0Z" fill="rgb(227,73,2)" fill-opacity="0.3"></path>
<path d="M306.7 271l2.6 0l0 -33.5l-2.6 0Z" fill="rgb(227,73,2)" fill-opacity="0.3"></path>
<path d="M310.6 271l2.6 0l0 -32.4l-2.6 0Z" fill="rgb(227,73,2)" fill-opacity="0.3"></path>
<path d="M314.4 271l2.6 0l0 -31.7l-2.6 0Z" fill="rgb(227,73,2)" fill-opacity="0.3"></path>
<path d="M318.2 271l2.6 0l0 -31.2l-2.6 0Z" fill="rgb(227,73,2)" fill-opacity="0.3"></path>
<path d="M322 271l2.6 0l0 -29.8l-2.6 0Z" fill="rgb(227,73,2)" fill-opacity="0.3"></path>
<path d="M325.8 271l2.6 0l0 -28.4l-2.6 0Z" fill="rgb(227,73,2)" fill-opacity="0.3"></path>
<path d="M329.6 271l2.6 0l0 -27.2l-2.6 0Z" fill="rgb(227,73,2)" fill-opacity="0.3"></path>
<path d="M333.4 271l2.6 0l0 -26.3l-2.6 0Z" fill="rgb(227,73,2)" fill-opacity="0.3"></path>
<path d="M337.3 271l2.6 0l0 -25.8l-2.6 0Z" fill="rgb(227,73,2)" fill-opacity="0.3"></path>
<path d="M341.1 271l2.6 0l0 -25.1l-2.6 0Z" fill="rgb(227,73,2)" fill-opacity="0.3"></path>
<path d="M344.9 271l2.6 0l0 -23.7l-2.6 0Z" fill="rgb(227,73,2)" fill-opacity="0.3"></path>
<path d="M348.7 271l2.6 0l0 -23.4l-2.6 0Z" fill="rgb(227,73,2)" fill-opacity="0.3"></path>
<path d="M352.5 271l2.6 0l0 -23l-2.6 0Z" fill="rgb(227,73,2)" fill-opacity="0.3"></path>
<path d="M356.3 271l2.6 0l0 -22.3l-2.6 0Z" fill="rgb(227,73,2)" fill-opacity="0.3"></path>
<path d="M360.2 271l2.6 0l0 -22l-2.6 0Z" fill="rgb(227,73,2)" fill-opacity="0.3"></path>
<path d="M364 271l2.6 0l0 -21.6l-2.6 0Z" fill="rgb(227,73,2)" fill-opacity="0.3"></path>
<path d="M367.8 271l2.6 0l0 -21.3l-2.6 0Z" fill="rgb(227,73,2)" fill-opacity="0.3"></path>
<path d="M371.6 271l2.6 0l0 -20.4l-2.6 0Z" fill="rgb(227,73,2)" fill-opacity="0.3"></path>
<path d="M375.4 271l2.6 0l0 -19.9l-2.6 0Z" fill="rgb(227,73,2)" fill-opacity="0.8"></path>
<path d="M379.2 271l2.6 0l0 -18.5l-2.6 0Z" fill="rgb(227,73,2)" fill-opacity="0.3"></path>
<path d="M383 271l2.6 0l0 -17.6l-2.6 0Z" fill="rgb(227,73,2)" fill-opacity="0.3"></path>
<path d="M386.9 271l2.6 0l0 -16.9l-2.6 0Z" fill="rgb(227,73,2)" fill-opacity="0.3"></path>
<path d="M390.7 271l2.6 0l0 -16.4l-2.6 0Z" fill="rgb(227,73,2)" fill-opacity="0.3"></path>
<path d="M394.5 271l2.6 0l0 -16.4l-2.6 0Z" fill="rgb(227,73,2)" fill-opacity="0.3"></path>
<path d="M398.3 271l2.6 0l0 -15.7l-2.6 0Z" fill="rgb(227,73,2)" fill-opacity="0.3"></path>
<path d="M402.1 271l2.6 0l0 -15.7l-2.6 0Z" fill="rgb(227,73,2)" fill-opacity="0.3"></path>
<path d="M405.9 271l2.6 0l0 -14.8l-2.6 0Z" fill="rgb(227,73,2)" fill-opacity="0.3"></path>
<path d="M409.7 271l2.6 0l0 -14.3l-2.6 0Z" fill="rgb(227,73,2)" fill-opacity="0.3"></path>
<path d="M413.6 271l2.6 0l0 -13.8l-2.6 0Z" fill="rgb(227,73,2)" fill-opacity="0.3"></path>
<path d="M417.4 271l2.6 0l0 -13.4l-2.6 0Z" fill="rgb(227,73,2)" fill-opacity="0.3"></path>
<path d="M421.2 271l2.6 0l0 -13.4l-2.6 0Z" fill="rgb(227,73,2)" fill-opacity="0.3"></path>
<path d="M425 271l2.6 0l0 -13.1l-2.6 0Z" fill="rgb(227,73,2)" fill-opacity="0.3"></path>
<path d="M428.8 271l2.6 0l0 -12.7l-2.6 0Z" fill="rgb(227,73,2)" fill-opacity="0.3"></path>
<path d="M432.6 271l2.6 0l0 -12.4l-2.6 0Z" fill="rgb(227,73,2)" fill-opacity="0.3"></path>
<path d="M436.5 271l2.6 0l0 -12.4l-2.6 0Z" fill="rgb(227,73,2)" fill-opacity="0.3"></path>
<path d="M440.3 271l2.6 0l0 -11l-2.6 0Z" fill="rgb(227,73,2)" fill-opacity="0.3"></path>
<path d="M444.1 271l2.6 0l0 -10.6l-2.6 0Z" fill="rgb(227,73,2)" fill-opacity="0.3"></path>
<path d="M447.9 271l2.6 0l0 -10.1l-2.6 0Z" fill="rgb(227,73,2)" fill-opacity="0.3"></path>
<path d="M451.7 271l2.6 0l0 -10.1l-2.6 0Z" fill="rgb(227,73,2)" fill-opacity="0.3"></path>
<path d="M455.5 271l2.6 0l0 -10.1l-2.6 0Z" fill="rgb(227,73,2)" fill-opacity="0.3"></path>
<path d="M459.3 271l2.6 0l0 -9.8l-2.6 0Z" fill="rgb(227,73,2)" fill-opacity="0.3"></path>
<path d="M463.2 271l2.6 0l0 -9.6l-2.6 0Z" fill="rgb(227,73,2)" fill-opacity="0.3"></path>
<path d="M467 271l2.6 0l0 -8.9l-2.6 0Z" fill="rgb(227,73,2)" fill-opacity="0.3"></path>
<path d="M470.8 271l2.6 0l0 -8.4l-2.6 0Z" fill="rgb(227,73,2)" fill-opacity="0.3"></path>
<path d="M474.6 271l2.6 0l0 -8.4l-2.6 0Z" fill="rgb(227,73,2)" fill-opacity="0.3"></path>
<path d="M478.4 271l2.6 0l0 -8.4l-2.6 0Z" fill="rgb(227,73,2)" fill-opacity="0.3"></path>
<path d="M482.2 271l2.6 0l0 -8l-2.6 0Z" fill="rgb(227,73,2)" fill-opacity="0.3"></path>
<path d="M486.1 271l2.6 0l0 -7.3l-2.6 0Z" fill="rgb(227,73,2)" fill-opacity="0.3"></path>
<path d="M489.9 271l2.6 0l0 -7.3l-2.6 0Z" fill="rgb(227,73,2)" fill-opacity="0.3"></path>
<path d="M493.7 271l2.6 0l0 -7.3l-2.6 0Z" fill="rgb(227,73,2)" fill-opacity="0.3"></path>
<path d="M497.5 271l2.6 0l0 -6.8l-2.6 0Z" fill="rgb(227,73,2)" fill-opacity="0.3"></path>
<path d="M501.3 271l2.6 0l0 -6.3l-2.6 0Z" fill="rgb(227,73,2)" fill-opacity="0.3"></path>
<path d="M505.1 271l2.6 0l0 -6.3l-2.6 0Z" fill="rgb(227,73,2)" fill-opacity="0.3"></path>
<path d="M508.9 271l2.6 0l0 -6.1l-2.6 0Z" fill="rgb(227,73,2)" fill-opacity="0.3"></path>
<path d="M512.8 271l2.6 0l0 -5.9l-2.6 0Z" fill="rgb(227,73,2)" fill-opacity="0.3"></path>
<path d="M516.6 271l2.6 0l0 -5.6l-2.6 0Z" fill="rgb(227,73,2)" fill-opacity="0.3"></path>
<path d="M520.4 271l2.6 0l0 -5.4l-2.6 0Z" fill="rgb(227,73,2)" fill-opacity="0.3"></path>
<path d="M524.2 271l2.6 0l0 -5.2l-2.6 0Z" fill="rgb(227,73,2)" fill-opacity="0.3"></path>
<path d="M528 271l2.6 0l0 -4.9l-2.6 0Z" fill="rgb(227,73,2)" fill-opacity="0.3"></path>
<path d="M531.8 271l2.6 0l0 -4.9l-2.6 0Z" fill="rgb(227,73,2)" fill-opacity="0.3"></path>
<path d="M535.7 271l2.6 0l0 -4.9l-2.6 0Z" fill="rgb(227,73,2)" fill-opacity="0.3"></path>
<path d="M539.5 271l2.6 0l0 -4.9l-2.6 0Z" fill="rgb(227,73,2)" fill-opacity="0.3"></path>
<path d="M543.3 271l2.6 0l0 -4.9l-2.6 0Z" fill="rgb(227,73,2)" fill-opacity="0.3"></path>
<path d="M547.1 271l2.6 0l0 -4.9l-2.6 0Z" fill="rgb(227,73,2)" fill-opacity="0.3"></path>
<path d="M550.9 271l2.6 0l0 -4.7l-2.6 0Z" fill="rgb(227,73,2)" fill-opacity="0.3"></path>
<path d="M554.7 271l2.6 0l0 -4.2l-2.6 0Z" fill="rgb(227,73,2)" fill-opacity="0.3"></path>
<path d="M558.5 271l2.6 0l0 -4.2l-2.6 0Z" fill="rgb(227,73,2)" fill-opacity="0.3"></path>
<path d="M562.4 271l2.6 0l0 -4l-2.6 0Z" fill="rgb(227,73,2)" fill-opacity="0.3"></path>
<path d="M566.2 271l2.6 0l0 -3.8l-2.6 0Z" fill="rgb(227,73,2)" fill-opacity="0.3"></path>
<path d="M570 271l2.6 0l0 -3.5l-2.6 0Z" fill="rgb(227,73,2)" fill-opacity="0.3"></path>
<path d="M573.8 271l2.6 0l0 -3.5l-2.6 0Z" fill="rgb(227,73,2)" fill-opacity="0.3"></path>
<path d="M577.6 271l2.6 0l0 -3.5l-2.6 0Z" fill="rgb(227,73,2)" fill-opacity="0.3"></path>
<path d="M581.4 271l2.6 0l0 -3.3l-2.6 0Z" fill="rgb(227,73,2)" fill-opacity="0.3"></path>
<path d="M585.2 271l2.6 0l0 -3l-2.6 0Z" fill="rgb(227,73,2)" fill-opacity="0.3"></path>
<path d="M589.1 271l2.6 0l0 -2.6l-2.6 0Z" fill="rgb(227,73,2)" fill-opacity="0.3"></path>
<path d="M592.9 271l2.6 0l0 -2.3l-2.6 0Z" fill="rgb(227,73,2)" fill-opacity="0.3"></path>
<path d="M596.7 271l2.6 0l0 -2.3l-2.6 0Z" fill="rgb(227,73,2)" fill-opacity="0.3"></path>
<path d="M600.5 271l2.6 0l0 -2.3l-2.6 0Z" fill="rgb(227,73,2)" fill-opacity="0.3"></path>
<path d="M604.3 271l2.6 0l0 -2.3l-2.6 0Z" fill="rgb(227,73,2)" fill-opacity="0.3"></path>
<path d="M608.1 271l2.6 0l0 -2.3l-2.6 0Z" fill="rgb(227,73,2)" fill-opacity="0.3"></path>
<path d="M612 271l2.6 0l0 -2.3l-2.6 0Z" fill="rgb(227,73,2)" fill-opacity="0.3"></path>
<path d="M615.8 271l2.6 0l0 -2.3l-2.6 0Z" fill="rgb(227,73,2)" fill-opacity="0.3"></path>
<path d="M619.6 271l2.6 0l0 -2.3l-2.6 0Z" fill="rgb(227,73,2)" fill-opacity="0.3"></path>
<path d="M623.4 271l2.6 0l0 -2.3l-2.6 0Z" fill="rgb(227,73,2)" fill-opacity="0.3"></path>
<path d="M627.2 271l2.6 0l0 -2.3l-2.6 0Z" fill="rgb(227,73,2)" fill-opacity="0.3"></path>
<path d="M631 271l2.6 0l0 -2.3l-2.6 0Z" fill="rgb(227,73,2)" fill-opacity="0.3"></path>
<path d="M634.8 271l2.6 0l0 -2.1l-2.6 0Z" fill="rgb(227,73,2)" fill-opacity="0.3"></path>
<path d="M638.7 271l2.6 0l0 -2.1l-2.6 0Z" fill="rgb(227,73,2)" fill-opacity="0.3"></path>
<path d="M642.5 271l2.6 0l0 -1.6l-2.6 0Z" fill="rgb(227,73,2)" fill-opacity="0.3"></path>
<path d="M646.3 271l2.6 0l0 -1.4l-2.6 0Z" fill="rgb(227,73,2)" fill-opacity="0.3"></path>
<path d="M650.1 271l2.6 0l0 -1.2l-2.6 0Z" fill="rgb(227,73,2)" fill-opacity="0.3"></path>
<path d="M653.9 271l2.6 0l0 -1.2l-2.6 0Z" fill="rgb(227,73,2)" fill-opacity="0.3"></path>
<path d="M657.7 271l2.6 0l0 -1.2l-2.6 0Z" fill="rgb(227,73,2)" fill-opacity="0.3"></path>
<path d="M661.6 271l2.6 0l0 -1.2l-2.6 0Z" fill="rgb(227,73,2)" fill-opacity="0.3"></path>
<path d="M665.4 271l2.6 0l0 -0.9l-2.6 0Z" fill="rgb(227,73,2)" fill-opacity="0.3"></path>
<path d="M669.2 271l2.6 0l0 -0.9l-2.6 0Z" fill="rgb(227,73,2)" fill-opacity="0.3"></path>
<path d="M673 271l2.6 0l0 -0.9l-2.6 0Z" fill="rgb(227,73,2)" fill-opacity="0.3"></path>
<path d="M676.8 271l2.6 0l0 -0.9l-2.6 0Z" fill="rgb(227,73,2)" fill-opacity="0.3"></path>
<path d="M680.6 271l2.6 0l0 -0.9l-2.6 0Z" fill="rgb(227,73,2)" fill-opacity="0.3"></path>
<path d="M684.4 271l2.6 0l0 -0.9l-2.6 0Z" fill="rgb(227,73,2)" fill-opacity="0.3"></path>
<path d="M688.3 271l2.6 0l0 -0.9l-2.6 0Z" fill="rgb(227,73,2)" fill-opacity="0.3"></path>
<path d="M692.1 271l2.6 0l0 -0.9l-2.6 0Z" fill="rgb(227,73,2)" fill-opacity="0.3"></path>
<path d="M695.9 271l2.6 0l0 -0.9l-2.6 0Z" fill="rgb(227,73,2)" fill-opacity="0.3"></path>
<path d="M699.7 271l2.6 0l0 -0.9l-2.6 0Z" fill="rgb(227,73,2)" fill-opacity="0.3"></path>
<path d="M703.5 271l2.6 0l0 -0.9l-2.6 0Z" fill="rgb(227,73,2)" fill-opacity="0.3"></path>
<path d="M707.3 271l2.6 0l0 -0.9l-2.6 0Z" fill="rgb(227,73,2)" fill-opacity="0.3"></path>
<path d="M711.1 271l2.6 0l0 -0.9l-2.6 0Z" fill="rgb(227,73,2)" fill-opacity="0.3"></path>
<path d="M715 271l2.6 0l0 -0.9l-2.6 0Z" fill="rgb(227,73,2)" fill-opacity="0.3"></path>
<path d="M718.8 271l2.6 0l0 -0.9l-2.6 0Z" fill="rgb(227,73,2)" fill-opacity="0.3"></path>
<path d="M722.6 271l2.6 0l0 -0.9l-2.6 0Z" fill="rgb(227,73,2)" fill-opacity="0.3"></path>
<path d="M726.4 271l2.6 0l0 -0.9l-2.6 0Z" fill="rgb(227,73,2)" fill-opacity="0.3"></path>
<path d="M730.2 271l2.6 0l0 -0.9l-2.6 0Z" fill="rgb(227,73,2)" fill-opacity="0.3"></path>
<path d="M734 271l2.6 0l0 -0.9l-2.6 0Z" fill="rgb(227,73,2)" fill-opacity="0.3"></path>
<path d="M737.9 271l2.6 0l0 -0.9l-2.6 0Z" fill="rgb(227,73,2)" fill-opacity="0.3"></path>
<path d="M741.7 271l2.6 0l0 -0.9l-2.6 0Z" fill="rgb(227,73,2)" fill-opacity="0.3"></path>
<path d="M745.5 271l2.6 0l0 -0.9l-2.6 0Z" fill="rgb(227,73,2)" fill-opacity="0.3"></path>
<path d="M749.3 271l2.6 0l0 -0.9l-2.6 0Z" fill="rgb(227,73,2)" fill-opacity="0.3"></path>
<path d="M753.1 271l2.6 0l0 -0.9l-2.6 0Z" fill="rgb(227,73,2)" fill-opacity="0.3"></path>
<path d="M756.9 271l2.6 0l0 -0.9l-2.6 0Z" fill="rgb(227,73,2)" fill-opacity="0.3"></path>
<path d="M760.7 271l2.6 0l0 -0.9l-2.6 0Z" fill="rgb(227,73,2)" fill-opacity="0.3"></path>
<path d="M764.6 271l2.6 0l0 -0.9l-2.6 0Z" fill="rgb(227,73,2)" fill-opacity="0.3"></path>
<path d="M768.4 271l2.6 0l0 -0.9l-2.6 0Z" fill="rgb(227,73,2)" fill-opacity="0.3"></path>
<path d="M772.2 271l2.6 0l0 -0.9l-2.6 0Z" fill="rgb(227,73,2)" fill-opacity="0.3"></path>
<path d="M776 271l2.6 0l0 -0.9l-2.6 0Z" fill="rgb(227,73,2)" fill-opacity="0.3"></path>
<path d="M779.8 271l2.6 0l0 -0.9l-2.6 0Z" fill="rgb(227,73,2)" fill-opacity="0.3"></path>
<path d="M783.6 271l2.6 0l0 -0.9l-2.6 0Z" fill="rgb(227,73,2)" fill-opacity="0.3"></path>
<path d="M787.5 271l2.6 0l0 -0.9l-2.6 0Z" fill="rgb(227,73,2)" fill-opacity="0.3"></path>
<path d="M791.3 271l2.6 0l0 -0.9l-2.6 0Z" fill="rgb(227,73,2)" fill-opacity="0.3"></path>
<path d="M795.1 271l2.6 0l0 -0.9l-2.6 0Z" fill="rgb(227,73,2)" fill-opacity="0.3"></path>
<path d="M798.9 271l2.6 0l0 -0.9l-2.6 0Z" fill="rgb(227,73,2)" fill-opacity="0.3"></path>
<path d="M802.7 271l2.6 0l0 -0.9l-2.6 0Z" fill="rgb(227,73,2)" fill-opacity="0.3"></path>
<path d="M806.5 271l2.6 0l0 -0.9l-2.6 0Z" fill="rgb(227,73,2)" fill-opacity="0.3"></path>
<path d="M810.3 271l2.6 0l0 -0.9l-2.6 0Z" fill="rgb(227,73,2)" fill-opacity="0.3"></path>
<path d="M814.2 271l2.6 0l0 -0.9l-2.6 0Z" fill="rgb(227,73,2)" fill-opacity="0.3"></path>
<path d="M818 271l2.6 0l0 -0.9l-2.6 0Z" fill="rgb(227,73,2)" fill-opacity="0.3"></path>
<path d="M821.8 271l2.6 0l0 -0.7l-2.6 0Z" fill="rgb(227,73,2)" fill-opacity="0.3"></path>
<path d="M825.6 271l2.6 0l0 -0.5l-2.6 0Z" fill="rgb(227,73,2)" fill-opacity="0.3"></path>
<path d="M829.4 271l2.6 0l0 -0.5l-2.6 0Z" fill="rgb(227,73,2)" fill-opacity="0.3"></path>
<path d="M833.2 271l2.6 0l0 -0.5l-2.6 0Z" fill="rgb(227,73,2)" fill-opacity="0.3"></path>
<path d="M837.1 271l2.6 0l0 -0.5l-2.6 0Z" fill="rgb(227,73,2)" fill-opacity="0.3"></path>
<path d="M840.9 271l2.6 0l0 -0.5l-2.6 0Z" fill="rgb(227,73,2)" fill-opacity="0.3"></path>
<path d="M844.7 271l2.6 0l0 -0.5l-2.6 0Z" fill="rgb(227,73,2)" fill-opacity="0.3"></path>
<path d="M848.5 271l2.6 0l0 -0.5l-2.6 0Z" fill="rgb(227,73,2)" fill-opacity="0.3"></path>
<path d="M852.3 271l2.6 0l0 -0.5l-2.6 0Z" fill="rgb(227,73,2)" fill-opacity="0.3"></path>
<path d="M856.1 271l2.6 0l0 -0.5l-2.6 0Z" fill="rgb(227,73,2)" fill-opacity="0.3"></path>
<path d="M859.9 271l2.6 0l0 -0.5l-2.6 0Z" fill="rgb(227,73,2)" fill-opacity="0.3"></path>
<path d="M863.8 271l2.6 0l0 -0.5l-2.6 0Z" fill="rgb(227,73,2)" fill-opacity="0.3"></path>
<path d="M867.6 271l2.6 0l0 -0.5l-2.6 0Z" fill="rgb(227,73,2)" fill-opacity="0.3"></path>
<path d="M871.4 271l2.6 0l0 -0.5l-2.6 0Z" fill="rgb(227,73,2)" fill-opacity="0.3"></path>
<path d="M875.2 271l2.6 0l0 -0.5l-2.6 0Z" fill="rgb(227,73,2)" fill-opacity="0.3"></path>
<path d="M879 271l2.6 0l0 -0.5l-2.6 0Z" fill="rgb(227,73,2)" fill-opacity="0.3"></path>
<path d="M882.8 271l2.6 0l0 -0.5l-2.6 0Z" fill="rgb(227,73,2)" fill-opacity="0.3"></path>
<path d="M886.6 271l2.6 0l0 -0.5l-2.6 0Z" fill="rgb(227,73,2)" fill-opacity="0.3"></path>
<path d="M890.5 271l2.6 0l0 -0.5l-2.6 0Z" fill="rgb(227,73,2)" fill-opacity="0.3"></path>
<path d="M894.3 271l2.6 0l0 -0.5l-2.6 0Z" fill="rgb(227,73,2)" fill-opacity="0.3"></path>
<path d="M898.1 271l2.6 0l0 -0.5l-2.6 0Z" fill="rgb(227,73,2)" fill-opacity="0.3"></path>
<path d="M901.9 271l2.6 0l0 -0.2l-2.6 0Z" fill="rgb(227,73,2)" fill-opacity="0.3"></path>
<path d="M905.7 271l2.6 0l0 -0.2l-2.6 0Z" fill="rgb(227,73,2)" fill-opacity="0.3"></path>
<path d="M909.5 271l2.6 0l0 -0.2l-2.6 0Z" fill="rgb(227,73,2)" fill-opacity="0.3"></path>
<path d="M913.4 271l2.6 0l0 -0.2l-2.6 0Z" fill="rgb(227,73,2)" fill-opacity="0.3"></path>
<path d="M917.2 271l2.6 0l0 -0.2l-2.6 0Z" fill="rgb(227,73,2)" fill-opacity="0.3"></path>
<path d="M921 271l2.6 0l0 -0.2l-2.6 0Z" fill="rgb(227,73,2)" fill-opacity="0.3"></path>
<path d="M924.8 271l2.6 0l0 -0.2l-2.6 0Z" fill="rgb(227,73,2)" fill-opacity="0.3"></path>
<path d="M928.6 271l2.6 0l0 -0.2l-2.6 0Z" fill="rgb(227,73,2)" fill-opacity="0.3"></path>
<path d="M-5 -5l226.9 0l0 24l-226.9 0Z" transform="translate(391.54 5)" fill="rgb(0,0,0)" fill-opacity="0" stroke="#ccc" stroke-width="0"></path>
<path d="M3.5 0L21.5 0A3.5 3.5 0 0 1 25 3.5L25 10.5A3.5 3.5 0 0 1 21.5 14L3.5 14A3.5 3.5 0 0 1 0 10.5L0 3.5A3.5 3.5 0 0 1 3.5 0" transform="translate(391.54 5)" fill="rgb(227,73,2)" fill-opacity="0.3"></path>
<text dominant-baseline="central" text-anchor="start" style="font-size:12px;font-family:sans-serif;" xml:space="preserve" x="30" y="7" transform="translate(391.54 5)" fill="#333">Times completed</text>
<path d="M0 7L25 7" transform="translate(524.1 5)" fill="#000" stroke="#E34902" stroke-width="2" stroke-linecap="butt" stroke-miterlimit="10"></path>
<path d="M18.1 7A5.6 5.6 0 1 1 18.1 6.4A5.6 5.6 0 0 1 18.1 7" transform="translate(524.1 5)" fill="#fff" stroke="#E34902" stroke-width="2" stroke-linecap="butt" stroke-miterlimit="10"></path>
<text dominant-baseline="central" text-anchor="start" style="font-size:12px;font-family:sans-serif;" x="30" y="7" transform="translate(524.1 5)" fill="#333">Eddington</text>
<path d="M-0.54 -0.89A0.6 0.6 0 1 1 0.54 -0.89C0.39 -0.56 0 -0.42 0 0C0 -0.42 -0.39 -0.56 -0.54 -0.89Z" transform="matrix(25,0,0,25,376.7289,246.3067)" fill="rgb(227,73,2)" fill-opacity="0.8"></path>
<text dominant-baseline="central" text-anchor="middle" style="font-size:12px;font-family:sans-serif;" transform="translate(376.7289 220.1638)" fill="#eee" stroke="rgb(227,73,2)" stroke-width="2" paint-order="stroke" stroke-opacity="0.8" stroke-miterlimit="2">84</text>
<g clip-path="url(#zr0-c0)">
<path d="M60.1 270.8L63.9 270.5L67.7 270.3L71.5 270.1L75.3 269.8L79.1 269.6L83 269.4L86.8 269.1L90.6 268.9L94.4 268.7L98.2 268.4L102 268.2L105.8 268L109.7 267.7L113.5 267.5L117.3 267.2L121.1 267L124.9 266.8L128.7 266.5L132.6 266.3L136.4 266.1L140.2 265.8L144 265.6L147.8 265.4L151.6 265.1L155.4 264.9L159.3 264.7L163.1 264.4L166.9 264.2L170.7 264L174.5 263.7L178.3 263.5L182.2 263.3L186 263L189.8 262.8L193.6 262.6L197.4 262.3L201.2 262.1L205 261.9L208.9 261.6L212.7 261.4L216.5 261.2L220.3 260.9L224.1 260.7L227.9 260.5L231.8 260.2L235.6 260L239.4 259.7L243.2 259.5L247 259.3L250.8 259L254.6 258.8L258.5 258.6L262.3 258.3L266.1 258.1L269.9 257.9L273.7 257.6L277.5 257.4L281.3 257.2L285.2 256.9L289 256.7L292.8 256.5L296.6 256.2L300.4 256L304.2 255.8L308.1 255.5L311.9 255.3L315.7 255.1L319.5 254.8L323.3 254.6L327.1 254.4L330.9 254.1L334.8 253.9L338.6 253.7L342.4 253.4L346.2 253.2L350 252.9L353.8 252.7L357.7 252.5L361.5 252.2L365.3 252L369.1 251.8L372.9 251.5L376.7 251.3L380.5 251.1L384.4 250.8L388.2 250.6L392 250.4L395.8 250.1L399.6 249.9L403.4 249.7L407.3 249.4L411.1 249.2L414.9 249L418.7 248.7L422.5 248.5L426.3 248.3L430.1 248L434 247.8L437.8 247.6L441.6 247.3L445.4 247.1L449.2 246.9L453 246.6L456.8 246.4L460.7 246.1L464.5 245.9L468.3 245.7L472.1 245.4L475.9 245.2L479.7 245L483.6 244.7L487.4 244.5L491.2 244.3L495 244L498.8 243.8L502.6 243.6L506.4 243.3L510.3 243.1L514.1 242.9L517.9 242.6L521.7 242.4L525.5 242.2L529.3 241.9L533.2 241.7L537 241.5L540.8 241.2L544.6 241L548.4 240.8L552.2 240.5L556 240.3L559.9 240.1L563.7 239.8L567.5 239.6L571.3 239.4L575.1 239.1L578.9 238.9L582.7 238.6L586.6 238.4L590.4 238.2L594.2 237.9L598 237.7L601.8 237.5L605.6 237.2L609.5 237L613.3 236.8L617.1 236.5L620.9 236.3L624.7 236.1L628.5 235.8L632.3 235.6L636.2 235.4L640 235.1L643.8 234.9L647.6 234.7L651.4 234.4L655.2 234.2L659.1 234L662.9 233.7L666.7 233.5L670.5 233.3L674.3 233L678.1 232.8L681.9 232.6L685.8 232.3L689.6 232.1L693.4 231.8L697.2 231.6L701 231.4L704.8 231.1L708.7 230.9L712.5 230.7L716.3 230.4L720.1 230.2L723.9 230L727.7 229.7L731.5 229.5L735.4 229.3L739.2 229L743 228.8L746.8 228.6L750.6 228.3L754.4 228.1L758.2 227.9L762.1 227.6L765.9 227.4L769.7 227.2L773.5 226.9L777.3 226.7L781.1 226.5L785 226.2L788.8 226L792.6 225.8L796.4 225.5L800.2 225.3L804 225L807.8 224.8L811.7 224.6L815.5 224.3L819.3 224.1L823.1 223.9L826.9 223.6L830.7 223.4L834.6 223.2L838.4 222.9L842.2 222.7L846 222.5L849.8 222.2L853.6 222L857.4 221.8L861.3 221.5L865.1 221.3L868.9 221.1L872.7 220.8L876.5 220.6L880.3 220.4L884.2 220.1L888 219.9L891.8 219.7L895.6 219.4L899.4 219.2L903.2 219L907 218.7L910.9 218.5L914.7 218.3L918.5 218L922.3 217.8L926.1 217.5L929.9 217.3" fill="none" stroke="#E34902" stroke-width="2" stroke-linejoin="bevel"></path>
</g>
<defs >
<clipPath id="zr0-c0">
<path d="M57 59l876 0l0 213l-876 0Z" fill="#000"></path>
</clipPath>
</defs>
</svg>